<?xml version="1.0" encoding="UTF-8"?>
<svg version="1.1" xmlns="http://www.w3.org/2000/svg" width="512" height="512">
<path d="M0 0 C4.22367701 0.00913286 8.44729031 -0.00495962 12.67095423 -0.01591969 C20.92346615 -0.03362248 29.17583181 -0.0299019 37.42834926 -0.01826912 C44.14071977 -0.00920243 50.85304955 -0.00802473 57.56542444 -0.01236439 C58.52403854 -0.01297732 59.48265263 -0.01359025 60.47031564 -0.01422176 C62.41826814 -0.01550077 64.36622063 -0.01679763 66.3141731 -0.01811212 C84.54164526 -0.02949378 102.76903669 -0.01644221 120.9964956 0.00508934 C136.60598892 0.02295812 152.21536321 0.01985333 167.82485437 0.0014143 C185.99110638 -0.02003519 204.1572878 -0.02839537 222.3235507 -0.01613665 C224.26397752 -0.01486257 226.20440434 -0.01360508 228.14483118 -0.01236439 C229.57658639 -0.01143873 229.57658639 -0.01143873 231.03726596 -0.01049438 C237.73457639 -0.0070537 244.4318417 -0.01284206 251.12914515 -0.0222826 C259.30095909 -0.03354941 267.47261953 -0.03036477 275.64441609 -0.00915962 C279.80662378 0.0012882 283.96857637 0.00558096 288.13078165 -0.00775623 C320.2121828 -0.10210895 320.2121828 -0.10210895 333.85512781 4.52289867 C335.12442636 4.94320984 335.12442636 4.94320984 336.41936731 5.37201214 C360.64748916 14.19283536 379.37694518 32.7674644 390.85512781 55.52289867 C397.04861947 69.06814537 399.31121696 82.48723959 399.24280787 97.30349255 C399.24699202 98.73889428 399.25247541 100.1742927 399.25912768 101.60968512 C399.27345947 105.51304884 399.26937645 109.41619921 399.26196086 113.319574 C399.25720076 117.54534274 399.26976404 121.77106719 399.27997828 125.9968214 C399.29711659 134.25974509 399.29801659 142.52259257 399.29276537 150.78552941 C399.28871294 157.50654862 399.29017993 164.22754543 399.29551363 170.94856358 C399.29626205 171.90758414 399.29701047 172.8666047 399.29778158 173.85468649 C399.29931316 175.80336359 399.30085151 177.75204068 399.30239654 179.70071777 C399.31610376 197.9481895 399.31069655 216.19561829 399.29921133 234.44308903 C399.28928212 251.10792884 399.30221741 267.77265757 399.32614552 284.43748025 C399.35057463 301.58143522 399.36013496 318.72533854 399.3534928 335.86931056 C399.35000887 345.48131331 399.35217777 355.0932307 399.36974382 364.70522022 C399.38451361 372.88807867 399.3850392 381.07079163 399.36767291 389.25364736 C399.35919945 393.42191527 399.35692299 397.58992383 399.37232447 401.75817776 C399.48266305 433.88759294 399.48266305 433.88759294 394.85512781 447.52289867 C394.57489991 448.36903634 394.29467201 449.21517401 394.00595236 450.08695221 C385.18655103 474.31513817 366.60982009 493.04509032 343.85512781 504.52289867 C330.30988112 510.71639033 316.89078689 512.97898782 302.07453394 512.91057873 C300.6391322 512.91476288 299.20373378 512.92024627 297.76834136 512.92689854 C293.86497765 512.94123033 289.96182727 512.93714731 286.05845249 512.92973173 C281.83268374 512.92497162 277.60695929 512.9375349 273.38120508 512.94774914 C265.11828139 512.96488745 256.85543391 512.96578746 248.59249707 512.96053623 C241.87147786 512.9564838 235.15048106 512.9579508 228.42946291 512.96328449 C227.47044235 512.96403291 226.51142178 512.96478134 225.52333999 512.96555244 C223.57466289 512.96708402 221.6259858 512.96862237 219.67730872 512.97016741 C201.42983698 512.98387462 183.1824082 512.97846741 164.93493745 512.96698219 C148.27009765 512.95705298 131.60536892 512.96998828 114.94054624 512.99391638 C97.79659126 513.01834549 80.65268795 513.02790582 63.50871593 513.02126366 C53.89671317 513.01777973 44.28479578 513.01994863 34.67280626 513.03751469 C26.48994782 513.05228447 18.30723486 513.05281006 10.12437912 513.03544378 C5.95611121 513.02697031 1.78810266 513.02469385 -2.38015127 513.04009533 C-34.50956645 513.15043392 -34.50956645 513.15043392 -48.14487219 508.52289867 C-48.99100986 508.24267077 -49.83714752 507.96244287 -50.70892572 507.67372322 C-74.93711168 498.85432189 -93.66706383 480.27759095 -105.14487219 457.52289867 C-111.33836385 443.97765198 -113.60096134 430.55855776 -113.53255224 415.7423048 C-113.5367364 414.30690307 -113.54221979 412.87150464 -113.54887205 411.43611223 C-113.56320385 407.53274851 -113.55912082 403.62959813 -113.55170524 399.72622335 C-113.54694513 395.5004546 -113.55950842 391.27473015 -113.56972265 387.04897594 C-113.58686096 378.78605225 -113.58776097 370.52320478 -113.58250975 362.26026794 C-113.57845732 355.53924873 -113.57992431 348.81825192 -113.58525801 342.09723377 C-113.58600643 341.13821321 -113.58675485 340.17919265 -113.58752595 339.19111085 C-113.58905754 337.24243376 -113.59059589 335.29375666 -113.59214092 333.34507958 C-113.60584814 315.09760784 -113.60044092 296.85017906 -113.58895571 278.60270832 C-113.57902649 261.93786851 -113.59196179 245.27313978 -113.6158899 228.6083171 C-113.640319 211.46436213 -113.64987933 194.32045881 -113.64323717 177.17648679 C-113.63975325 167.56448404 -113.64192215 157.95256665 -113.6594882 148.34057713 C-113.67425799 140.15771868 -113.67478357 131.97500572 -113.65741729 123.79214998 C-113.64894383 119.62388208 -113.64666736 115.45587352 -113.66206884 111.28761959 C-113.77240743 79.15820441 -113.77240743 79.15820441 -109.14487219 65.52289867 C-108.86464429 64.67676101 -108.58441639 63.83062334 -108.29569674 62.95884514 C-99.59055918 39.04455849 -81.28189676 20.20319265 -58.80112219 8.83149242 C-39.59478054 0.04326958 -20.69826566 -0.06632466 0 0 Z " fill="#4CAF50" transform="translate(113.14487218856812,-0.5228986740112305)"/>
<path d="M0 0 C84.48 0 168.96 0 256 0 C256.0825 28.359375 256.165 56.71875 256.25 85.9375 C256.28641602 94.86675537 256.32283203 103.79601074 256.36035156 112.99584961 C256.37841797 123.96398926 256.37841797 123.96398926 256.3817749 129.11109924 C256.38547678 132.67878832 256.40036677 136.24623534 256.42230225 139.81385803 C256.45002651 144.38452426 256.4579123 148.95484565 256.4522891 153.52558815 C256.45346248 155.19057026 256.46122263 156.85556619 256.47686052 158.52047527 C256.71593435 185.24585272 247.48818019 208.85382376 228.84375 228.18359375 C211.3605578 245.75610744 188.37311796 256.2161813 163.50184619 256.37485582 C161.14709065 256.37323252 158.79268323 256.35704774 156.43798828 256.34057617 C154.69414223 256.33965494 152.95029506 256.34006142 151.20644951 256.34167194 C146.57863132 256.34234325 141.95105059 256.32508298 137.32328796 256.30384064 C132.96478611 256.2866283 128.6063391 256.2859444 124.24780273 256.28381348 C111.54017094 256.26813411 98.83258238 256.2262503 86.125 256.1875 C57.70375 256.125625 29.2825 256.06375 0 256 C0 171.52 0 87.04 0 0 Z " fill="#455A64" transform="translate(256,256)"/>
<path d="M0 0 C42.5390625 -0.12375 42.5390625 -0.12375 85.9375 -0.25 C99.33138306 -0.30462402 99.33138306 -0.30462402 112.99584961 -0.36035156 C123.96398926 -0.37841797 123.96398926 -0.37841797 129.11109924 -0.3817749 C132.67878832 -0.38547678 136.24623534 -0.40036677 139.81385803 -0.42230225 C144.38452426 -0.45002651 148.95484565 -0.4579123 153.52558815 -0.4522891 C155.19057026 -0.45346248 156.85556619 -0.46122263 158.52047527 -0.47686052 C185.24585272 -0.71593435 208.85382376 8.51181981 228.18359375 27.15625 C245.75610744 44.6394422 256.2161813 67.62688204 256.37485582 92.49815381 C256.37323252 94.85290935 256.35704774 97.20731677 256.34057617 99.56201172 C256.33965494 101.30585777 256.34006142 103.04970494 256.34167194 104.79355049 C256.34234325 109.42136868 256.32508298 114.04894941 256.30384064 118.67671204 C256.2866283 123.03521389 256.2859444 127.3936609 256.28381348 131.75219727 C256.26813411 144.45982906 256.2262503 157.16741762 256.1875 169.875 C256.125625 198.29625 256.06375 226.7175 256 256 C171.52 256 87.04 256 0 256 C0 171.52 0 87.04 0 0 Z " fill="#FEC107" transform="translate(256,0)"/>
<path d="M0 0 C84.48 0 168.96 0 256 0 C256 84.48 256 168.96 256 256 C213.4609375 256.12375 213.4609375 256.12375 170.0625 256.25 C161.13324463 256.28641602 152.20398926 256.32283203 143.00415039 256.36035156 C132.03601074 256.37841797 132.03601074 256.37841797 126.88890076 256.3817749 C123.32121168 256.38547678 119.75376466 256.40036677 116.18614197 256.42230225 C111.61547574 256.45002651 107.04515435 256.4579123 102.47441185 256.4522891 C100.80942974 256.45346248 99.14443381 256.46122263 97.47952473 256.47686052 C70.75414728 256.71593435 47.14617624 247.48818019 27.81640625 228.84375 C10.24389256 211.3605578 -0.2161813 188.37311796 -0.37485582 163.50184619 C-0.37323252 161.14709065 -0.35704774 158.79268323 -0.34057617 156.43798828 C-0.33965494 154.69414223 -0.34006142 152.95029506 -0.34167194 151.20644951 C-0.34234325 146.57863132 -0.32508298 141.95105059 -0.30384064 137.32328796 C-0.2866283 132.96478611 -0.2859444 128.6063391 -0.28381348 124.24780273 C-0.26813411 111.54017094 -0.2262503 98.83258238 -0.1875 86.125 C-0.125625 57.70375 -0.06375 29.2825 0 0 Z " fill="#2196F3" transform="translate(0,256)"/>
<path d="M0 0 C5.29345879 2.90849384 8.54120339 6.70339155 12.1875 11.375 C12.74920898 12.08035889 13.31091797 12.78571777 13.88964844 13.51245117 C15.60236574 15.6678378 17.30263881 17.83250819 19 20 C19.99070702 21.25925496 20.98158312 22.51837691 21.97265625 23.77734375 C23.34808314 25.52727986 24.72277617 27.27778147 26.09619141 29.02929688 C27.39625306 30.68715163 28.69760495 32.34397778 30 34 C30.43393066 34.55187988 30.86786133 35.10375977 31.31494141 35.67236328 C32.55720587 37.24539993 33.80962318 38.81040263 35.0625 40.375 C36.13177734 41.71691406 36.13177734 41.71691406 37.22265625 43.0859375 C37.80917969 43.71757812 38.39570313 44.34921875 39 45 C39.66 45 40.32 45 41 45 C42.68467108 43.03608471 44.25514123 41.0619441 45.8125 39 C46.80594804 37.70860068 47.80079623 36.41827753 48.796875 35.12890625 C49.31958984 34.45102051 49.84230469 33.77313477 50.38085938 33.07470703 C53.5863816 28.96726917 56.90912063 24.95454452 60.21191406 20.92529297 C62.83356123 17.71295151 65.41512687 14.48290767 67.90625 11.16796875 C68.35669678 10.56927979 68.80714355 9.97059082 69.27124023 9.35375977 C70.48135112 7.73364345 71.680533 6.10538011 72.87890625 4.4765625 C75.48170379 1.43756869 77.19683686 0.15483333 81.18359375 -0.1875 C85.27301773 0.15269472 88.17648223 0.54108387 91.0625 3.625 C93.34044352 7.59303064 93.72351726 9.49811485 93 14 C90.07928207 18.84949392 86.53636106 23.14180006 82.9375 27.5 C77.7702231 33.80957074 72.66166796 40.15664902 67.6640625 46.6015625 C65.8263596 48.96745104 63.9418579 51.28508281 62.0234375 53.5859375 C61.54737061 54.16964111 61.07130371 54.75334473 60.58081055 55.35473633 C59.67469586 56.46535 58.75485342 57.56495071 57.81958008 58.65112305 C56.42350288 60.30277078 56.42350288 60.30277078 55 63 C55.71653475 68.06573406 60.21189195 72.14779516 63.4375 75.9375 C64.71347841 77.46120303 65.98820261 78.98595716 67.26171875 80.51171875 C68.21183838 81.64746338 68.21183838 81.64746338 69.18115234 82.80615234 C73.57587172 88.10695078 77.78188759 93.55847934 82 99 C82.47018555 99.60457031 82.94037109 100.20914063 83.42480469 100.83203125 C84.82728238 102.6361664 86.22681293 104.44253827 87.625 106.25 C88.05135742 106.79946289 88.47771484 107.34892578 88.91699219 107.91503906 C91.83961488 111.70987066 93.23498555 113.57620191 92.8125 118.375 C92.41887546 121.3248128 92.05143891 122.91426848 90.5 125.5 C86.8831024 127.67013856 83.2077323 128.39026185 79 128 C74.46842336 125.96687557 71.89829255 122.70443113 69 118.8125 C68.03398665 117.54838161 67.0664769 116.28540566 66.09765625 115.0234375 C65.59379395 114.3644043 65.08993164 113.70537109 64.57080078 113.02636719 C61.923588 109.61140509 59.17709574 106.27844085 56.4375 102.9375 C50.81907853 96.06218341 45.36582827 89.07368783 40 82 C36.67405479 85.1646407 33.85723052 88.62180715 31.0625 92.25 C26.33597915 98.32776402 21.52101845 104.32659617 16.64697266 110.28662109 C14.24725236 113.22330137 11.85733504 116.162469 9.5390625 119.1640625 C8.84554687 120.05867188 8.15203125 120.95328125 7.4375 121.875 C6.85871094 122.63554687 6.27992187 123.39609375 5.68359375 124.1796875 C2.86924325 127.22258154 0.65638067 127.92839484 -3.4375 128.375 C-7.62750939 127.93394638 -9.093893 126.98913863 -12 124 C-14.30297424 120.7100368 -14.37246995 117.95391177 -14 114 C-12.26953125 111.1328125 -12.26953125 111.1328125 -9.8125 108.125 C-9.1462561 107.29633423 -9.1462561 107.29633423 -8.46655273 106.45092773 C-6.99125937 104.6224773 -5.49600702 102.81152679 -4 101 C-2.94134444 99.69772215 -1.88407838 98.39431363 -0.828125 97.08984375 C1.35735278 94.39224214 3.54983097 91.70054364 5.74609375 89.01171875 C9.32508539 84.61655933 12.82884014 80.16429518 16.31030273 75.69165039 C19.13805918 72.06557238 22.04114109 68.51892863 25 65 C23.70891619 62.23344582 22.2935196 59.95037933 20.34765625 57.6015625 C19.82421631 56.96468506 19.30077637 56.32780762 18.76147461 55.67163086 C18.20081299 54.99624268 17.64015137 54.32085449 17.0625 53.625 C15.87667575 52.1817519 14.69179528 50.7377279 13.5078125 49.29296875 C12.91516602 48.57028809 12.32251953 47.84760742 11.71191406 47.10302734 C8.79567487 43.52052814 5.94709691 39.88587151 3.11791992 36.234375 C0.70104331 33.12462206 -1.76575283 30.07563737 -4.31640625 27.07421875 C-4.86804443 26.41494385 -5.41968262 25.75566895 -5.98803711 25.07641602 C-7.04692587 23.81411954 -8.11863735 22.56242272 -9.20532227 21.32397461 C-12.86955342 16.91892484 -13.91630914 13.76271328 -14 8 C-10.59783287 1.43867768 -7.39987583 -0.75252975 0 0 Z " fill="#F7F8F9" transform="translate(99,320)"/>
<path d="M0 0 C0.75925781 0.04382813 1.51851563 0.08765625 2.30078125 0.1328125 C5.7962298 1.21977686 7.91447495 2.70585554 9.6875 5.875 C10.40043321 10.2664041 10.26793841 14.6123665 10.17578125 19.05078125 C10.16870651 20.33107712 10.16163177 21.61137299 10.15434265 22.9304657 C10.13531714 26.32245312 10.08625838 29.71335774 10.03082275 33.10491943 C9.97953199 36.57044834 9.95680789 40.03615347 9.93164062 43.50195312 C9.8765341 50.29343687 9.79287646 57.08412029 9.6875 63.875 C10.71987289 63.86500725 10.71987289 63.86500725 11.77310181 63.85481262 C18.94325077 63.78838744 26.11331216 63.74316931 33.28369141 63.71020508 C35.95899721 63.69682449 38.63382149 63.67466615 41.30908203 63.64868164 C45.15663751 63.61224916 49.00386586 63.59526172 52.8515625 63.58203125 C54.64250839 63.55880547 54.64250839 63.55880547 56.46963501 63.53511047 C67.03691696 63.5329739 67.03691696 63.5329739 71.6875 66.875 C74.3665573 70.89358595 74.38360694 74.15141721 73.6875 78.875 C71.89356332 81.74529869 70.70486724 83.36631638 67.6875 84.875 C65.8389292 84.96601612 63.98703621 84.99253146 62.13623047 84.98852539 C60.97517792 84.98844986 59.81412537 84.98837433 58.6178894 84.98829651 C57.35953278 84.98313522 56.10117615 84.97797394 54.8046875 84.97265625 C53.52014679 84.9712413 52.23560608 84.96982635 50.91213989 84.96836853 C47.49593158 84.96454911 44.07976574 84.95472373 40.66357422 84.94366455 C37.17806574 84.93343807 33.6925504 84.92886826 30.20703125 84.92382812 C23.36717005 84.91310096 16.52733706 84.89603142 9.6875 84.875 C9.69638245 85.59052536 9.70526489 86.30605072 9.7144165 87.04325867 C9.79466473 93.79633444 9.85551602 100.54927657 9.89474869 107.30272198 C9.91559712 110.77453184 9.94386295 114.24594673 9.98925781 117.7175293 C10.04115439 121.71146369 10.06046773 125.70498515 10.078125 129.69921875 C10.09877014 130.94209152 10.11941528 132.18496429 10.14068604 133.46549988 C10.14113922 135.20673882 10.14113922 135.20673882 10.14160156 136.9831543 C10.15048401 138.00241501 10.15936646 139.02167572 10.16851807 140.07182312 C9.55855851 143.62641834 8.15324053 145.29442822 5.6875 147.875 C2.21218913 149.61265543 -1.5213001 149.47085352 -5.3125 148.875 C-8.59425318 146.34531526 -10.00493777 144.79768669 -11.3125 140.875 C-11.40076965 139.04967414 -11.43013203 137.22125311 -11.42602539 135.39379883 C-11.42594986 134.27286331 -11.42587433 133.1519278 -11.42579651 131.99702454 C-11.41805458 130.18285286 -11.41805458 130.18285286 -11.41015625 128.33203125 C-11.4087413 127.09329758 -11.40732635 125.8545639 -11.40586853 124.57829285 C-11.40121602 121.28868463 -11.3922339 117.9991254 -11.38116455 114.70953369 C-11.37092629 111.35128377 -11.36636574 107.99302667 -11.36132812 104.63476562 C-11.35029145 98.04815788 -11.33354767 91.46158295 -11.3125 84.875 C-12.02802536 84.88610306 -12.74355072 84.89720612 -13.48075867 84.90864563 C-20.23379018 85.00895525 -26.98661292 85.08501883 -33.74022198 85.13406086 C-37.21214849 85.16012227 -40.68345792 85.19545387 -44.1550293 85.25219727 C-48.14898499 85.31706834 -52.14229558 85.34120862 -56.13671875 85.36328125 C-57.37959152 85.38908768 -58.62246429 85.4148941 -59.90299988 85.44148254 C-69.50596883 85.44460671 -69.50596883 85.44460671 -72.58081055 82.48486328 C-75.13765958 78.63138574 -75.88620936 75.47275531 -75.3125 70.875 C-73.65496674 67.74843725 -71.51893764 65.47821882 -68.3125 63.875 C-66.4945546 63.7840785 -64.67324055 63.75746533 -62.85302734 63.76147461 C-61.14147964 63.76158791 -61.14147964 63.76158791 -59.39535522 63.76170349 C-58.15887238 63.76686478 -56.92238953 63.77202606 -55.6484375 63.77734375 C-54.38609283 63.7787587 -53.12374817 63.78017365 -51.82315063 63.78163147 C-48.46611701 63.78628922 -45.109151 63.79527592 -41.75213623 63.80633545 C-38.32695094 63.8165623 -34.90175866 63.82113182 -31.4765625 63.82617188 C-24.75518957 63.83721762 -18.03384869 63.85396806 -11.3125 63.875 C-11.32915459 62.82383499 -11.32915459 62.82383499 -11.34614563 61.75143433 C-11.4465381 55.13116234 -11.52256065 48.51110429 -11.57156086 41.89024162 C-11.59760024 38.48671744 -11.63289092 35.08382481 -11.68969727 31.68066406 C-11.7546664 27.76375011 -11.77872753 23.84708742 -11.80078125 19.9296875 C-11.82658768 18.71384979 -11.8523941 17.49801208 -11.87898254 16.24533081 C-11.88210673 6.80854254 -11.88210673 6.80854254 -8.90698242 3.12158203 C-5.59926612 0.25740537 -4.26041895 -0.32937693 0 0 Z " fill="#F9F9F9" transform="translate(139.3125,64.125)"/>
<path d="M0 0 C4.95126726 2.72301223 7.34824636 5.54338462 10.14453125 10.40625 C10.51128464 11.03430542 10.87803802 11.66236084 11.25590515 12.30944824 C12.45373749 14.36610168 13.63274383 16.43293427 14.8125 18.5 C15.65464469 19.95145343 16.4984192 21.40196235 17.34375 22.8515625 C18.63925894 25.07322448 19.93393317 27.29531179 21.2237854 29.52026367 C25.21842484 36.40747501 29.34431976 43.2091545 33.5 50 C40.52755771 61.52433083 47.44289568 73.11287098 54.31835938 84.72851562 C54.69118042 85.35829315 55.06400146 85.98807068 55.44812012 86.63693237 C56.18571585 87.88300377 56.92310498 89.12919747 57.66027832 90.3755188 C59.59233018 93.63831408 61.5350505 96.8942711 63.4921875 100.14208984 C63.90138428 100.8214006 64.31058105 101.50071136 64.73217773 102.2006073 C65.51416648 103.49726605 66.29745524 104.79314202 67.08227539 106.08808899 C72.01340064 114.26296479 72.01340064 114.26296479 71.9375 118.4375 C70.83343994 122.63292822 69.26274431 124.22666734 66 127 C65.67 127.33 65.34 127.66 65 128 C57.87117057 128.59406912 57.87117057 128.59406912 54.61523438 126.3737793 C51.64479855 123.677593 49.96371377 121.06257875 47.953125 117.59375 C47.58495667 116.96569458 47.21678833 116.33763916 46.83746338 115.69055176 C46.04611614 114.33819976 45.2591991 112.9832474 44.47631836 111.62597656 C42.80159154 108.72262774 41.10562587 105.83188484 39.41088867 102.94018555 C38.54015787 101.45401418 37.6705362 99.96719245 36.80200195 98.47973633 C32.78313226 91.60246543 28.65438631 84.79598054 24.5 78 C17.47304444 66.47529451 10.55711035 54.88713921 3.68164062 43.27148438 C3.30873901 42.64154572 2.9358374 42.01160706 2.55163574 41.36257935 C1.81494265 40.11808299 1.07836837 38.87351629 0.34191895 37.62887573 C-2.8045567 32.31672264 -5.9808642 27.02267367 -9.17016602 21.73612976 C-12.49726171 16.21013637 -14.03510784 12.51442871 -13 6 C-9.08606917 1.05608737 -6.27104539 -0.60298513 0 0 Z " fill="#F7F7F7" transform="translate(355,320)"/>
<path d="M0 0 C0.94632294 -0.00571014 1.89264587 -0.01142029 2.86764526 -0.01730347 C4.43002678 -0.01898026 4.43002678 -0.01898026 6.02397156 -0.02069092 C7.66559265 -0.02813828 7.66559265 -0.02813828 9.34037781 -0.03573608 C12.9740918 -0.05038476 16.60776214 -0.05716433 20.24150085 -0.06268311 C22.7601522 -0.06843246 25.27880353 -0.07419022 27.79745483 -0.07995605 C32.40802605 -0.08912829 37.0185841 -0.09542538 41.62916213 -0.09845281 C48.41309061 -0.10293179 55.19681742 -0.12047123 61.98068458 -0.1494534 C67.85717814 -0.17368678 73.73360449 -0.18139775 79.61014366 -0.18312836 C82.10962713 -0.18615909 84.60910965 -0.19420169 87.10856056 -0.20731354 C90.60395766 -0.22434046 94.09886248 -0.22250167 97.59428406 -0.21600342 C98.62979904 -0.2252182 99.66531403 -0.23443298 100.73220825 -0.243927 C106.99894423 -0.20737374 110.61394594 0.45042848 115.3157196 4.82794189 C117.06404645 8.23257839 117.30827788 11.45181127 116.5032196 15.14044189 C114.32747545 17.83149388 112.59256104 19.59577118 109.5032196 21.14044189 C107.9815889 21.24323887 106.45557698 21.28422176 104.93051147 21.29434204 C103.48578461 21.30724274 103.48578461 21.30724274 102.01187134 21.32040405 C100.95158218 21.324664 99.89129303 21.32892395 98.7988739 21.33331299 C97.6849527 21.34149048 96.57103149 21.34966797 95.4233551 21.35809326 C91.72472172 21.38297463 88.02612675 21.39946939 84.32743835 21.41387939 C82.43643371 21.42186491 82.43643371 21.42186491 80.50722694 21.43001175 C75.21002463 21.45124616 69.91283583 21.47037627 64.61560345 21.48163414 C57.02485831 21.49787257 49.43462513 21.53104752 41.844073 21.58803499 C35.86291313 21.63140805 29.88198632 21.64737945 23.90065956 21.65376663 C21.35649278 21.66049618 18.81233395 21.67576203 16.26827049 21.69965744 C12.71036466 21.7311715 9.15375686 21.73136578 5.5957489 21.72393799 C4.54153244 21.74034332 3.48731598 21.75674866 2.40115356 21.77365112 C-4.77319102 21.7122277 -4.77319102 21.7122277 -8.62756348 18.66647339 C-9.24440506 17.832883 -9.86124664 16.9992926 -10.4967804 16.14044189 C-10.8267804 15.81044189 -11.1567804 15.48044189 -11.4967804 15.14044189 C-12.18765043 8.34688658 -12.18765043 8.34688658 -10.4499054 5.31231689 C-7.09184496 1.24313778 -5.12606399 0.01848363 0 0 Z " fill="#FAF9F9" transform="translate(331.4967803955078,127.85955810546875)"/>
</svg>
